<?xml version="1.0" standalone="no"?><!DOCTYPE svg PUBLIC "-//W3C//DTD SVG 1.1//EN" "http://www.w3.org/Graphics/SVG/1.1/DTD/svg11.dtd"><svg class="icon" height="512" viewBox="0 0 1024 1024" version="1.1" xmlns="http://www.w3.org/2000/svg"><path d="M593.457853 200.811789l256.431158 267.856843 14.174315 136.515368-270.551579-404.372211z m-26.408421 573.332211l-191.649685-242.526316-42.361263-148.318316 121.263158-312.912842 399.413895 596.776421-286.72 106.981053z m213.423157 91.567158l-310.110315 60.901053 101.699368-108.328422 280.791579-104.717473-72.380632 152.144842z m-357.968842 48.936421l-239.616-136.353684 173.002106-203.344842 175.535158 223.663158-108.867369 116.035368z m-191.002947-13.473684l-46.888421-72.272842 161.68421 91.998315-114.795789-19.671579zM127.376168 487.208421l169.391158-73.997474 35.193263 123.311158-180.547368 212.345263L127.376168 487.208421z m143.898948-370.795789l138.832842-51.361685-117.274947 302.888421-151.336422 66.021053L271.221221 116.412632z m621.514105 335.225263a8.245895 8.245895 0 0 0-2.155789-4.688842L465.134484 2.533053a8.084211 8.084211 0 0 0-8.623158-1.994106l-18.485894 6.844632a8.730947 8.730947 0 0 0-4.634948 1.616842L240.7168 80.303158a7.922526 7.922526 0 0 0-4.688842 4.527158L81.457853 463.440842a7.653053 7.653053 0 0 0-0.538948 3.772632l30.181053 328.542315a8.515368 8.515368 0 0 0 1.185684 3.610948l90.597053 139.371789c1.239579 1.940211 3.233684 3.179789 5.443368 3.557053l216.117895 37.187368 2.586947 0.431158a8.084211 8.084211 0 0 0 2.910316-0.053894l377.047579-74.051369a8.192 8.192 0 0 0 5.712842-4.473263l100.783158-211.482947a10.886737 10.886737 0 0 0 1.616842-3.125895l0.161684-0.754526 0.592842-1.293474a7.653053 7.653053 0 0 0 0.808421-4.365474l-23.875368-228.621474z" /></svg>